<?xml version="1.0" standalone="no"?><!DOCTYPE svg PUBLIC "-//W3C//DTD SVG 1.1//EN" "http://www.w3.org/Graphics/SVG/1.1/DTD/svg11.dtd"><svg t="1768256527881" class="icon" viewBox="0 0 1024 1024" version="1.1" xmlns="http://www.w3.org/2000/svg" p-id="7300" xmlns:xlink="http://www.w3.org/1999/xlink" width="200" height="200"><path d="M512 1024C230.4 1024 0 793.6 0 512S230.4 0 512 0s512 230.4 512 512-230.4 512-512 512z m0-930.909091C281.6 93.090909 93.090909 281.6 93.090909 512s188.509091 418.909091 418.909091 418.909091 418.909091-188.509091 418.909091-418.909091S742.4 93.090909 512 93.090909z" fill="#0f172a" p-id="7301"></path><path d="M349.090909 488.727273c-39.563636 0-69.818182-30.254545-69.818182-69.818182v-46.545455c0-39.563636 30.254545-69.818182 69.818182-69.818181s69.818182 30.254545 69.818182 69.818181v46.545455c0 39.563636-30.254545 69.818182-69.818182 69.818182zM674.909091 488.727273c-39.563636 0-69.818182-30.254545-69.818182-69.818182v-46.545455c0-39.563636 30.254545-69.818182 69.818182-69.818181s69.818182 30.254545 69.818182 69.818181v46.545455c0 39.563636-30.254545 69.818182-69.818182 69.818182zM512 781.963636c-93.090909 0-181.527273-39.563636-244.363636-107.054545-18.618182-18.618182-16.290909-48.872727 2.327272-65.163636 18.618182-18.618182 48.872727-16.290909 65.163637 2.327272 46.545455 48.872727 107.054545 76.8 174.545454 76.8s130.327273-27.927273 174.545455-76.8c18.618182-18.618182 46.545455-20.945455 65.163636-2.327272 18.618182 18.618182 20.945455 46.545455 2.327273 65.163636-58.181818 67.490909-146.618182 107.054545-239.709091 107.054545z" fill="#0f172a" p-id="7302"></path></svg>